HIERARCHY
ROOT hip
{
  OFFSET 0.00112043 5.09927 -9.65472
  CHANNELS 6 Xposition Yposition Zposition Zrotation Xrotation Yrotation
  JOINT abdomen
  {
    OFFSET 0 -1.186 -1.5018
    CHANNELS 3 Zrotation Xrotation Yrotation
    JOINT abdomen2
    {
      OFFSET 0 9.964 0.2134
      CHANNELS 3 Zrotation Xrotation Yrotation
      JOINT chest
      {
        OFFSET 0 13.134 -3.2573
        CHANNELS 3 Zrotation Xrotation Yrotation
        JOINT neck
        {
          OFFSET 0 20.686 -1.6905
          CHANNELS 3 Zrotation Xrotation Yrotation
          JOINT head
          {
            OFFSET 0 7.238 -0.1237
            CHANNELS 3 Zrotation Xrotation Yrotation
            End Site
            {
              OFFSET 0 0 0
            }
          }
        }
        JOINT lCollar
        {
          OFFSET 1.7069 20.075 5.0056
          CHANNELS 3 Zrotation Xrotation Yrotation
          JOINT lShldr
          {
            OFFSET 13.6458 -0.047 -4.849
            CHANNELS 3 Zrotation Xrotation Yrotation
            JOINT lForeArm
            {
              OFFSET 28.3255 -0.9759 2.2888
              CHANNELS 3 Zrotation Xrotation Yrotation
              JOINT lHand
              {
                OFFSET 22.1583 -0.53 10.8316
                CHANNELS 3 Zrotation Xrotation Yrotation
                JOINT lThumb1
                {
                  OFFSET 0.786 0.112 2.5817
                  CHANNELS 3 Zrotation Xrotation Yrotation
                  JOINT lThumb2
                  {
                    OFFSET 0.3601 -0.878 4.2331
                    CHANNELS 3 Zrotation Xrotation Yrotation
                    JOINT lThumb2_End
                    {
                      OFFSET 1.8127 -1.216 2.2227
                      CHANNELS 3 Zrotation Xrotation Yrotation
                      End Site
                      {
                        OFFSET 0.0181 -0.0122 0.0222
                      }
                    }
                  }
                }
                JOINT lCarpal1
                {
                  OFFSET 0.9571 1.114 1.7695
                  CHANNELS 3 Zrotation Xrotation Yrotation
                  JOINT lIndex1
                  {
                    OFFSET 4.1246 0.487 4.1451
                    CHANNELS 3 Zrotation Xrotation Yrotation
                    JOINT lIndex2
                    {
                      OFFSET 3.4052 -1.454 2.7682
                      CHANNELS 3 Zrotation Xrotation Yrotation
                      JOINT lIndex2_End
                      {
                        OFFSET 1.4531 -1.795 1.2713
                        CHANNELS 3 Zrotation Xrotation Yrotation
                        End Site
                        {
                          OFFSET 0.0145 -0.0179 0.0127
                        }
                      }
                    }
                  }
                  JOINT lMid1
                  {
                    OFFSET 5.6954 0.21 2.1184
                    CHANNELS 3 Zrotation Xrotation Yrotation
                    JOINT lMid2
                    {
                      OFFSET 3.9766 -1.54 2.3863
                      CHANNELS 3 Zrotation Xrotation Yrotation
                      JOINT lMid2_End
                      {
                        OFFSET 1.4042 -1.926 1.125
                        CHANNELS 3 Zrotation Xrotation Yrotation
                        End Site
                        {
                          OFFSET 0.014 -0.0193 0.0113
                        }
                      }
                    }
                  }
                }
                JOINT lCarpal2
                {
                  OFFSET 2.0956 0.66 -0.3894
                  CHANNELS 3 Zrotation Xrotation Yrotation
                  JOINT lRing1
                  {
                    OFFSET 5.0395 -0.09 2.4971
                    CHANNELS 3 Zrotation Xrotation Yrotation
                    JOINT lRing2
                    {
                      OFFSET 3.7921 -1.552 1.4806
                      CHANNELS 3 Zrotation Xrotation Yrotation
                      JOINT lRing2_End
                      {
                        OFFSET 1.4655 -1.808 0.9609
                        CHANNELS 3 Zrotation Xrotation Yrotation
                        End Site
                        {
                          OFFSET 0.0147 -0.0181 0.0096
                        }
                      }
                    }
                  }
                  JOINT lPinky1
                  {
                    OFFSET 4.9141 -1.269 0.3591
                    CHANNELS 3 Zrotation Xrotation Yrotation
                    JOINT lPinky2
                    {
                      OFFSET 3.1477 -1.685 0.8462
                      CHANNELS 3 Zrotation Xrotation Yrotation
                      JOINT lPinky2_End
                      {
                        OFFSET 0.8055 -1.585 0.7955
                        CHANNELS 3 Zrotation Xrotation Yrotation
                        End Site
                        {
                          OFFSET 0.0081 -0.0158 0.008
                        }
                      }
                    }
                  }
                }
              }
            }
          }
        }
        JOINT rCollar
        {
          OFFSET -1.7069 20.075 5.0056
          CHANNELS 3 Zrotation Xrotation Yrotation
          JOINT rShldr
          {
            OFFSET -13.6458 -0.047 -4.849
            CHANNELS 3 Zrotation Xrotation Yrotation
            JOINT rForeArm
            {
              OFFSET -28.3255 -0.9759 2.2888
              CHANNELS 3 Zrotation Xrotation Yrotation
              JOINT rHand
              {
                OFFSET -22.1583 -0.53 10.8316
                CHANNELS 3 Zrotation Xrotation Yrotation
                JOINT rThumb1
                {
                  OFFSET -0.786 0.112 2.5817
                  CHANNELS 3 Zrotation Xrotation Yrotation
                  JOINT rThumb2
                  {
                    OFFSET -0.3601 -0.878 4.2331
                    CHANNELS 3 Zrotation Xrotation Yrotation
                    JOINT rThumb2_End
                    {
                      OFFSET -1.8127 -1.216 2.2227
                      CHANNELS 3 Zrotation Xrotation Yrotation
                      End Site
                      {
                        OFFSET -0.0181 -0.0122 0.0222
                      }
                    }
                  }
                }
                JOINT rCarpal1
                {
                  OFFSET -0.9571 1.114 1.7695
                  CHANNELS 3 Zrotation Xrotation Yrotation
                  JOINT rIndex1
                  {
                    OFFSET -4.1246 0.487 4.1451
                    CHANNELS 3 Zrotation Xrotation Yrotation
                    JOINT rIndex2
                    {
                      OFFSET -3.4052 -1.454 2.7682
                      CHANNELS 3 Zrotation Xrotation Yrotation
                      JOINT rIndex2_End
                      {
                        OFFSET -1.4531 -1.795 1.2713
                        CHANNELS 3 Zrotation Xrotation Yrotation
                        End Site
                        {
                          OFFSET -0.0145 -0.018 0.0127
                        }
                      }
                    }
                  }
                  JOINT rMid1
                  {
                    OFFSET -5.6954 0.21 2.1184
                    CHANNELS 3 Zrotation Xrotation Yrotation
                    JOINT rMid2
                    {
                      OFFSET -3.9766 -1.54 2.3863
                      CHANNELS 3 Zrotation Xrotation Yrotation
                      JOINT rMid2_End
                      {
                        OFFSET -1.4042 -1.926 1.125
                        CHANNELS 3 Zrotation Xrotation Yrotation
                        End Site
                        {
                          OFFSET -0.014 -0.0193 0.0113
                        }
                      }
                    }
                  }
                }
                JOINT rCarpal2
                {
                  OFFSET -2.0956 0.66 -0.3894
                  CHANNELS 3 Zrotation Xrotation Yrotation
                  JOINT rRing1
                  {
                    OFFSET -5.0395 -0.09 2.4971
                    CHANNELS 3 Zrotation Xrotation Yrotation
                    JOINT rRing2
                    {
                      OFFSET -3.7921 -1.552 1.4806
                      CHANNELS 3 Zrotation Xrotation Yrotation
                      JOINT rRing2_End
                      {
                        OFFSET -1.4655 -1.808 0.9609
                        CHANNELS 3 Zrotation Xrotation Yrotation
                        End Site
                        {
                          OFFSET -0.0147 -0.0181 0.0096
                        }
                      }
                    }
                  }
                  JOINT rPinky1
                  {
                    OFFSET -4.9141 -1.269 0.3592
                    CHANNELS 3 Zrotation Xrotation Yrotation
                    JOINT rPinky2
                    {
                      OFFSET -3.1477 -1.685 0.8462
                      CHANNELS 3 Zrotation Xrotation Yrotation
                      JOINT rPinky2_End
                      {
                        OFFSET -0.8055 -1.585 0.7955
                        CHANNELS 3 Zrotation Xrotation Yrotation
                        End Site
                        {
                          OFFSET -0.0081 -0.0158 0.008
                        }
                      }
                    }
                  }
                }
              }
            }
          }
        }
      }
    }
  }
  JOINT lThigh
  {
    OFFSET 8.367 -8.2066 0.5982
    CHANNELS 3 Zrotation Xrotation Yrotation
    JOINT lShin
    {
      OFFSET 2.1923 -43.463 -0.4932
      CHANNELS 3 Zrotation Xrotation Yrotation
      JOINT lFoot
      {
        OFFSET 0.7333 -45.8593 -2.6451
        CHANNELS 3 Zrotation Xrotation Yrotation
        End Site
        {
          OFFSET 2.6618 -4.2699 12.3931
        }
      }
    }
  }
  JOINT rThigh
  {
    OFFSET -8.367 -8.2066 0.5982
    CHANNELS 3 Zrotation Xrotation Yrotation
    JOINT rShin
    {
      OFFSET -2.1923 -43.463 -0.4931
      CHANNELS 3 Zrotation Xrotation Yrotation
      JOINT rFoot
      {
        OFFSET -0.7333 -45.8593 -2.6451
        CHANNELS 3 Zrotation Xrotation Yrotation
        End Site
        {
          OFFSET -2.6618 -4.2699 12.3931
        }
      }
    }
  }
}
MOTION
Frames:	4
Frame Time:	0.0333333
-1.87587 81.5396 24.999 -1.13336e-014 31.6011 -180 -0.614888 5.44607 -0.214681 -1.21748 10.8941 -0.372874 -1.21748 10.8941 -0.372874 12.0356 4.53059 -18.9681 11.3431 -36.5698 7.1234 -22.172 -15.6684 -34.7794 -7.27033 -22.8697 -12.8125 -15.1903 5.56037 -12.4696 -56.7813 9.48505 12.5334 5.00536e-007 -5.1117e-007 -4.65407e-007 1.00107e-006 -1.02234e-006 -9.30815e-007 -1.00107e-006 1.02234e-006 9.30815e-007 -6.36111e-015 1.59028e-015 4.77083e-015 5.00536e-007 -5.1117e-007 -4.65407e-007 1.00107e-006 -1.02234e-006 -9.30815e-007 -1.00107e-006 1.02234e-006 9.30815e-007 5.00536e-007 -5.1117e-007 -4.65407e-007 1.00107e-006 -1.02234e-006 -9.30815e-007 -1.00107e-006 1.02234e-006 9.30815e-007 -6.36111e-015 1.59028e-015 4.77083e-015 5.00536e-007 -5.1117e-007 -4.65407e-007 1.00107e-006 -1.02234e-006 -9.30815e-007 -1.00107e-006 1.02234e-006 9.30815e-007 5.00536e-007 -5.1117e-007 -4.65407e-007 1.00107e-006 -1.02234e-006 -9.30815e-007 -1.00107e-006 1.02234e-006 9.30815e-007 12.2705 -6.51566 5.74458 40.3029 -5.92165 12.4659 29.8489 12.4275 -11.7938 43.5944 12.7939 3.51573 5.1684e-015 0 -3.97569e-015 2.20476e-007 4.18522e-007 -7.05276e-007 3.52035e-007 -2.8211e-006 -1.67409e-006 4.77083e-015 0 -3.18055e-015 -3.18055e-015 -3.18055e-015 1.43125e-014 2.20476e-007 4.18522e-007 -7.05276e-007 3.52035e-007 -2.8211e-006 -1.67409e-006 -3.18055e-015 -3.18055e-015 1.43125e-014 2.20476e-007 4.18522e-007 -7.05276e-007 3.52035e-007 -2.8211e-006 -1.67409e-006 4.77083e-015 0 -3.18055e-015 -3.18055e-015 -3.18055e-015 1.43125e-014 2.20476e-007 4.18522e-007 -7.05276e-007 3.52035e-007 -2.8211e-006 -1.67409e-006 -3.18055e-015 -3.18055e-015 1.43125e-014 2.20476e-007 4.18522e-007 -7.05276e-007 3.52035e-007 -2.8211e-006 -1.67409e-006 107.726 -20.7864 133.965 -152.754 40.4605 124.301 11.3088 49.505 19.0626 -179.863 -24.5901 172.292 -123.906 43.7818 100.306 -0.349862 5.80499 21.9176 
-1.92583 81.8728 24.9703 -1.12831e-014 31.301 -180 -0.61605 5.3108 -0.215293 -1.21987 10.6236 -0.375374 -1.21987 10.6236 -0.375374 12.0702 6.22637 -19.3318 11.2213 -36.3039 7.02692 -22.4544 -15.0995 -34.0655 -7.41057 -22.8168 -13.0803 -15.4308 5.71246 -12.9492 -56.3295 9.54543 12.6832 -1.76556e-031 -3.18055e-015 -3.18055e-015 -5.00598e-007 5.11075e-007 4.65447e-007 -5.00598e-007 5.11075e-007 4.65447e-007 -8.82781e-032 -1.59028e-015 -3.18055e-015 -3.18055e-015 0 -3.18055e-015 -5.00598e-007 5.11075e-007 4.65447e-007 -5.00598e-007 5.11075e-007 4.65447e-007 -3.18055e-015 0 -3.18055e-015 -5.00598e-007 5.11075e-007 4.65447e-007 -5.00598e-007 5.11075e-007 4.65447e-007 -8.82781e-032 -1.59028e-015 -3.18055e-015 -3.18055e-015 0 -3.18055e-015 -5.00598e-007 5.11075e-007 4.65447e-007 -5.00598e-007 5.11075e-007 4.65447e-007 -3.18055e-015 0 -3.18055e-015 -5.00598e-007 5.11075e-007 4.65447e-007 -5.00598e-007 5.11075e-007 4.65447e-007 13.4 -5.88185 5.9797 39.8 -6.05799 12.2255 28.6103 12.2366 -11.9605 44.0332 13.4623 3.52127 5.1684e-015 6.36111e-015 -7.95139e-016 -4.40703e-007 -8.37124e-007 1.41052e-006 4.37326e-015 0 5.56597e-015 4.37326e-015 6.36111e-015 -0 1.98785e-015 6.36111e-015 4.77083e-015 -4.40703e-007 -8.37124e-007 1.41052e-006 -5.1684e-015 3.18055e-015 6.36111e-015 1.98785e-015 6.36111e-015 4.77083e-015 -4.40703e-007 -8.37124e-007 1.41052e-006 -5.1684e-015 3.18055e-015 6.36111e-015 4.37326e-015 6.36111e-015 -0 1.98785e-015 6.36111e-015 4.77083e-015 -4.40703e-007 -8.37124e-007 1.41052e-006 -5.1684e-015 3.18055e-015 6.36111e-015 1.98785e-015 6.36111e-015 4.77083e-015 -4.40703e-007 -8.37124e-007 1.41052e-006 -5.1684e-015 3.18055e-015 6.36111e-015 107.445 -20.7903 133.805 -152.763 40.449 124.293 11.7804 49.1401 18.4885 -179.742 -24.4495 172.388 -124.166 43.6587 100.469 -0.184438 5.4313 21.9536 
-1.97574 82.2062 24.9413 -1.12329e-014 31.0008 -180 -0.617012 5.17556 -0.215899 -1.22188 10.3531 -0.377885 -1.22187 10.3531 -0.377885 12.1151 7.92397 -19.6983 11.1003 -36.0378 6.93138 -22.7433 -14.5343 -33.3508 -7.55049 -22.7634 -13.3478 -15.67 5.86653 -13.4282 -55.8778 9.60691 12.8326 3.18055e-015 6.36111e-015 1.27222e-014 -5.00693e-007 5.10948e-007 4.6549e-007 -1.27222e-014 4.77083e-015 3.18055e-015 -3.18055e-015 4.77083e-015 9.54166e-015 5.29669e-031 -3.18055e-015 9.54166e-015 -5.00693e-007 5.10948e-007 4.6549e-007 -1.27222e-014 6.36111e-015 -0 5.29669e-031 -3.18055e-015 9.54166e-015 -5.00693e-007 5.10948e-007 4.6549e-007 -1.27222e-014 6.36111e-015 -0 -3.18055e-015 4.77083e-015 9.54166e-015 5.29669e-031 -3.18055e-015 9.54166e-015 -5.00693e-007 5.10948e-007 4.6549e-007 -1.27222e-014 6.36111e-015 -0 5.29669e-031 -3.18055e-015 9.54166e-015 -5.00693e-007 5.10948e-007 4.6549e-007 -1.27222e-014 6.36111e-015 -0 14.5251 -5.24394 6.20184 39.2965 -6.1922 11.984 27.3726 12.0494 -12.1312 44.4732 14.1305 3.52154 -1.19271e-015 -3.18055e-015 3.97569e-015 -1.19271e-015 -3.18055e-015 2.38542e-015 -2.20211e-007 -4.18606e-007 7.05229e-007 -7.95139e-016 -3.18055e-015 3.18055e-015 3.97569e-016 -3.18055e-015 6.36111e-015 -3.97569e-016 3.18055e-015 4.77083e-015 -2.20211e-007 -4.18606e-007 7.05229e-007 3.97569e-016 -3.18055e-015 6.36111e-015 -3.97569e-016 3.18055e-015 4.77083e-015 -2.20211e-007 -4.18606e-007 7.05229e-007 -7.95139e-016 -3.18055e-015 3.18055e-015 3.97569e-016 -3.18055e-015 6.36111e-015 -3.97569e-016 3.18055e-015 4.77083e-015 -2.20211e-007 -4.18606e-007 7.05229e-007 3.97569e-016 -3.18055e-015 6.36111e-015 -3.97569e-016 3.18055e-015 4.77083e-015 -2.20211e-007 -4.18606e-007 7.05229e-007 107.163 -20.7936 133.645 -152.772 40.4376 124.285 12.2434 48.7721 17.9226 -179.623 -24.3087 172.482 -124.426 43.5349 100.632 -0.0189736 5.05758 21.9906 
-2.0256 82.5397 24.9121 -1.1183e-014 30.7007 -180 -0.617796 5.04034 -0.216503 -1.22353 10.0827 -0.380411 -1.22353 10.0827 -0.380411 12.1717 9.62266 -20.0682 10.9802 -35.7712 6.83679 -23.0385 -13.9729 -32.6354 -7.69007 -22.7094 -13.6151 -15.9079 6.02256 -13.9066 -55.4262 9.66957 12.9814 -5.00821e-007 5.10789e-007 4.65535e-007 -5.00821e-007 5.10789e-007 4.65535e-007 -5.00821e-007 5.10789e-007 4.65535e-007 9.54166e-015 1.11319e-014 -0 -5.00821e-007 5.10789e-007 4.65535e-007 -5.00821e-007 5.10789e-007 4.65535e-007 -5.00821e-007 5.10789e-007 4.65535e-007 -5.00821e-007 5.10789e-007 4.65535e-007 -5.00821e-007 5.10789e-007 4.65535e-007 -5.00821e-007 5.10789e-007 4.65535e-007 9.54166e-015 1.11319e-014 -0 -5.00821e-007 5.10789e-007 4.65535e-007 -5.00821e-007 5.10789e-007 4.65535e-007 -5.00821e-007 5.10789e-007 4.65535e-007 -5.00821e-007 5.10789e-007 4.65535e-007 -5.00821e-007 5.10789e-007 4.65535e-007 -5.00821e-007 5.10789e-007 4.65535e-007 15.6456 -4.60234 6.41098 38.7924 -6.3243 11.7413 26.1364 11.866 -12.3057 44.9143 14.7985 3.51652 3.6658e-006 -1.91166e-006 -4.41772e-006 -3.26084e-006 -1.194e-006 5.30143e-007 3.04079e-006 7.75351e-007 1.7504e-007 -3.57812e-015 -6.36111e-015 -5.56597e-015 3.6658e-006 -1.91166e-006 -4.41772e-006 -3.26084e-006 -1.194e-006 5.30143e-007 3.04079e-006 7.75351e-007 1.7504e-007 3.6658e-006 -1.91166e-006 -4.41772e-006 -3.26084e-006 -1.194e-006 5.30143e-007 3.04079e-006 7.75351e-007 1.7504e-007 -3.57812e-015 -6.36111e-015 -5.56597e-015 3.6658e-006 -1.91166e-006 -4.41772e-006 -3.26084e-006 -1.194e-006 5.30143e-007 3.04079e-006 7.75351e-007 1.7504e-007 3.6658e-006 -1.91166e-006 -4.41772e-006 -3.26084e-006 -1.194e-006 5.30143e-007 3.04079e-006 7.75351e-007 1.7504e-007 106.881 -20.7963 133.484 -152.781 40.4262 124.277 12.7034 48.4013 17.3639 -179.504 -24.1676 172.577 -124.684 43.4105 100.794 0.146531 4.68392 22.0286 
